<svg id="wave" style="transform:rotate(0deg); transition: 0.3s" viewBox="0 0 1440 140" version="1.1" xmlns="http://www.w3.org/2000/svg"><defs><linearGradient id="sw-gradient-0" x1="0" x2="0" y1="1" y2="0"><stop stop-color="rgba(243, 106, 62, 1)" offset="0%"></stop><stop stop-color="rgba(255, 179, 11, 1)" offset="100%"></stop></linearGradient></defs><path style="transform:translate(0, 0px); opacity:1" fill="url(#sw-gradient-0)" d="M0,70L13.3,67.7C26.7,65,53,61,80,67.7C106.7,75,133,93,160,102.7C186.7,112,213,112,240,102.7C266.7,93,293,75,320,60.7C346.7,47,373,37,400,35C426.7,33,453,37,480,49C506.7,61,533,79,560,72.3C586.7,65,613,33,640,32.7C666.7,33,693,65,720,86.3C746.7,107,773,117,800,100.3C826.7,84,853,42,880,37.3C906.7,33,933,65,960,72.3C986.7,79,1013,61,1040,65.3C1066.7,70,1093,98,1120,95.7C1146.7,93,1173,61,1200,42C1226.7,23,1253,19,1280,18.7C1306.7,19,1333,23,1360,25.7C1386.7,28,1413,28,1440,28C1466.7,28,1493,28,1520,42C1546.7,56,1573,84,1600,79.3C1626.7,75,1653,37,1680,25.7C1706.7,14,1733,28,1760,44.3C1786.7,61,1813,79,1840,74.7C1866.7,70,1893,42,1907,28L1920,14L1920,140L1906.7,140C1893.3,140,1867,140,1840,140C1813.3,140,1787,140,1760,140C1733.3,140,1707,140,1680,140C1653.3,140,1627,140,1600,140C1573.3,140,1547,140,1520,140C1493.3,140,1467,140,1440,140C1413.3,140,1387,140,1360,140C1333.3,140,1307,140,1280,140C1253.3,140,1227,140,1200,140C1173.3,140,1147,140,1120,140C1093.3,140,1067,140,1040,140C1013.3,140,987,140,960,140C933.3,140,907,140,880,140C853.3,140,827,140,800,140C773.3,140,747,140,720,140C693.3,140,667,140,640,140C613.3,140,587,140,560,140C533.3,140,507,140,480,140C453.3,140,427,140,400,140C373.3,140,347,140,320,140C293.3,140,267,140,240,140C213.3,140,187,140,160,140C133.3,140,107,140,80,140C53.3,140,27,140,13,140L0,140Z"></path><defs><linearGradient id="sw-gradient-1" x1="0" x2="0" y1="1" y2="0"><stop stop-color="rgba(243, 106, 62, 1)" offset="0%"></stop><stop stop-color="rgba(255, 179, 11, 1)" offset="100%"></stop></linearGradient></defs><path style="transform:translate(0, 50px); opacity:0.9" fill="url(#sw-gradient-1)" d="M0,0L13.3,18.7C26.7,37,53,75,80,74.7C106.7,75,133,37,160,37.3C186.7,37,213,75,240,93.3C266.7,112,293,112,320,109.7C346.7,107,373,103,400,91C426.7,79,453,61,480,53.7C506.7,47,533,51,560,49C586.7,47,613,37,640,28C666.7,19,693,9,720,16.3C746.7,23,773,47,800,67.7C826.7,89,853,107,880,112C906.7,117,933,107,960,95.7C986.7,84,1013,70,1040,65.3C1066.7,61,1093,65,1120,72.3C1146.7,79,1173,89,1200,81.7C1226.7,75,1253,51,1280,51.3C1306.7,51,1333,75,1360,72.3C1386.7,70,1413,42,1440,42C1466.7,42,1493,70,1520,84C1546.7,98,1573,98,1600,100.3C1626.7,103,1653,107,1680,107.3C1706.7,107,1733,103,1760,88.7C1786.7,75,1813,51,1840,44.3C1866.7,37,1893,47,1907,51.3L1920,56L1920,140L1906.7,140C1893.3,140,1867,140,1840,140C1813.3,140,1787,140,1760,140C1733.3,140,1707,140,1680,140C1653.3,140,1627,140,1600,140C1573.3,140,1547,140,1520,140C1493.3,140,1467,140,1440,140C1413.3,140,1387,140,1360,140C1333.3,140,1307,140,1280,140C1253.3,140,1227,140,1200,140C1173.3,140,1147,140,1120,140C1093.3,140,1067,140,1040,140C1013.3,140,987,140,960,140C933.3,140,907,140,880,140C853.3,140,827,140,800,140C773.3,140,747,140,720,140C693.3,140,667,140,640,140C613.3,140,587,140,560,140C533.3,140,507,140,480,140C453.3,140,427,140,400,140C373.3,140,347,140,320,140C293.3,140,267,140,240,140C213.3,140,187,140,160,140C133.3,140,107,140,80,140C53.3,140,27,140,13,140L0,140Z"></path><defs><linearGradient id="sw-gradient-2" x1="0" x2="0" y1="1" y2="0"><stop stop-color="rgba(243, 106, 62, 1)" offset="0%"></stop><stop stop-color="rgba(255, 179, 11, 1)" offset="100%"></stop></linearGradient></defs><path style="transform:translate(0, 100px); opacity:0.8" fill="url(#sw-gradient-2)" d="M0,56L13.3,49C26.7,42,53,28,80,25.7C106.7,23,133,33,160,49C186.7,65,213,89,240,100.3C266.7,112,293,112,320,109.7C346.7,107,373,103,400,84C426.7,65,453,33,480,18.7C506.7,5,533,9,560,11.7C586.7,14,613,14,640,23.3C666.7,33,693,51,720,60.7C746.7,70,773,70,800,58.3C826.7,47,853,23,880,32.7C906.7,42,933,84,960,91C986.7,98,1013,70,1040,58.3C1066.7,47,1093,51,1120,51.3C1146.7,51,1173,47,1200,49C1226.7,51,1253,61,1280,67.7C1306.7,75,1333,79,1360,70C1386.7,61,1413,37,1440,35C1466.7,33,1493,51,1520,51.3C1546.7,51,1573,33,1600,42C1626.7,51,1653,89,1680,86.3C1706.7,84,1733,42,1760,28C1786.7,14,1813,28,1840,32.7C1866.7,37,1893,33,1907,30.3L1920,28L1920,140L1906.7,140C1893.3,140,1867,140,1840,140C1813.3,140,1787,140,1760,140C1733.3,140,1707,140,1680,140C1653.3,140,1627,140,1600,140C1573.3,140,1547,140,1520,140C1493.3,140,1467,140,1440,140C1413.3,140,1387,140,1360,140C1333.3,140,1307,140,1280,140C1253.3,140,1227,140,1200,140C1173.3,140,1147,140,1120,140C1093.3,140,1067,140,1040,140C1013.3,140,987,140,960,140C933.3,140,907,140,880,140C853.3,140,827,140,800,140C773.3,140,747,140,720,140C693.3,140,667,140,640,140C613.3,140,587,140,560,140C533.3,140,507,140,480,140C453.3,140,427,140,400,140C373.3,140,347,140,320,140C293.3,140,267,140,240,140C213.3,140,187,140,160,140C133.3,140,107,140,80,140C53.3,140,27,140,13,140L0,140Z"></path><defs><linearGradient id="sw-gradient-3" x1="0" x2="0" y1="1" y2="0"><stop stop-color="rgba(243, 106, 62, 1)" offset="0%"></stop><stop stop-color="rgba(255, 179, 11, 1)" offset="100%"></stop></linearGradient></defs><path style="transform:translate(0, 150px); opacity:0.7" fill="url(#sw-gradient-3)" d="M0,42L13.3,46.7C26.7,51,53,61,80,63C106.7,65,133,61,160,60.7C186.7,61,213,65,240,65.3C266.7,65,293,61,320,56C346.7,51,373,47,400,58.3C426.7,70,453,98,480,91C506.7,84,533,42,560,25.7C586.7,9,613,19,640,23.3C666.7,28,693,28,720,23.3C746.7,19,773,9,800,23.3C826.7,37,853,75,880,93.3C906.7,112,933,112,960,102.7C986.7,93,1013,75,1040,74.7C1066.7,75,1093,93,1120,86.3C1146.7,79,1173,47,1200,37.3C1226.7,28,1253,42,1280,44.3C1306.7,47,1333,37,1360,30.3C1386.7,23,1413,19,1440,21C1466.7,23,1493,33,1520,39.7C1546.7,47,1573,51,1600,49C1626.7,47,1653,37,1680,35C1706.7,33,1733,37,1760,42C1786.7,47,1813,51,1840,58.3C1866.7,65,1893,75,1907,79.3L1920,84L1920,140L1906.7,140C1893.3,140,1867,140,1840,140C1813.3,140,1787,140,1760,140C1733.3,140,1707,140,1680,140C1653.3,140,1627,140,1600,140C1573.3,140,1547,140,1520,140C1493.3,140,1467,140,1440,140C1413.3,140,1387,140,1360,140C1333.3,140,1307,140,1280,140C1253.3,140,1227,140,1200,140C1173.3,140,1147,140,1120,140C1093.3,140,1067,140,1040,140C1013.3,140,987,140,960,140C933.3,140,907,140,880,140C853.3,140,827,140,800,140C773.3,140,747,140,720,140C693.3,140,667,140,640,140C613.3,140,587,140,560,140C533.3,140,507,140,480,140C453.3,140,427,140,400,140C373.3,140,347,140,320,140C293.3,140,267,140,240,140C213.3,140,187,140,160,140C133.3,140,107,140,80,140C53.3,140,27,140,13,140L0,140Z"></path></svg>